<svg xmlns="http://www.w3.org/2000/svg" xmlns:xlink="http://www.w3.org/1999/xlink" width="200" zoomAndPan="magnify" viewBox="0 0 150 37.5" height="50" preserveAspectRatio="xMidYMid meet" version="1.0"><defs><g/><clipPath id="5a0fbc67fc"><path d="M 2 0 L 22 0 L 22 25 L 2 25 Z M 2 0 " clip-rule="nonzero"/></clipPath><clipPath id="d00425b4da"><path d="M 28 0 L 50 0 L 50 25 L 28 25 Z M 28 0 " clip-rule="nonzero"/></clipPath><clipPath id="7a0b4c3361"><rect x="0" width="77" y="0" height="34"/></clipPath><clipPath id="8088e8c7f3"><rect x="0" width="74" y="0" height="8"/></clipPath></defs><g transform="matrix(1, 0, 0, 1, 37, -0.000000000000001478)"><g clip-path="url(#7a0b4c3361)"><g clip-path="url(#5a0fbc67fc)"><g fill="#143047" fill-opacity="1"><g transform="translate(0.5465, 24.480662)"><g><path d="M 12.625 -24.578125 C 14.125 -24.578125 15.351562 -24.351562 16.3125 -23.90625 C 17.28125 -23.46875 18.140625 -22.957031 18.890625 -22.375 C 19.347656 -22.03125 19.695312 -21.988281 19.9375 -22.25 C 20.175781 -22.507812 20.335938 -23.128906 20.421875 -24.109375 L 21.21875 -24.109375 C 21.164062 -23.265625 21.128906 -22.238281 21.109375 -21.03125 C 21.085938 -19.832031 21.078125 -18.25 21.078125 -16.28125 L 20.296875 -16.28125 C 20.128906 -17.25 19.976562 -18.019531 19.84375 -18.59375 C 19.707031 -19.175781 19.539062 -19.671875 19.34375 -20.078125 C 19.15625 -20.492188 18.90625 -20.90625 18.59375 -21.3125 C 17.882812 -22.238281 16.992188 -22.910156 15.921875 -23.328125 C 14.859375 -23.753906 13.738281 -23.96875 12.5625 -23.96875 C 11.445312 -23.96875 10.441406 -23.6875 9.546875 -23.125 C 8.648438 -22.570312 7.878906 -21.773438 7.234375 -20.734375 C 6.585938 -19.691406 6.085938 -18.429688 5.734375 -16.953125 C 5.378906 -15.484375 5.203125 -13.828125 5.203125 -11.984375 C 5.203125 -10.078125 5.394531 -8.390625 5.78125 -6.921875 C 6.164062 -5.460938 6.703125 -4.234375 7.390625 -3.234375 C 8.085938 -2.234375 8.90625 -1.476562 9.84375 -0.96875 C 10.789062 -0.457031 11.8125 -0.203125 12.90625 -0.203125 C 13.925781 -0.203125 14.988281 -0.40625 16.09375 -0.8125 C 17.207031 -1.226562 18.082031 -1.890625 18.71875 -2.796875 C 19.21875 -3.453125 19.5625 -4.164062 19.75 -4.9375 C 19.945312 -5.707031 20.128906 -6.785156 20.296875 -8.171875 L 21.078125 -8.171875 C 21.078125 -6.109375 21.085938 -4.445312 21.109375 -3.1875 C 21.128906 -1.925781 21.164062 -0.863281 21.21875 0 L 20.421875 0 C 20.335938 -0.976562 20.1875 -1.59375 19.96875 -1.84375 C 19.75 -2.09375 19.390625 -2.054688 18.890625 -1.734375 C 18.054688 -1.140625 17.164062 -0.617188 16.21875 -0.171875 C 15.28125 0.265625 14.070312 0.484375 12.59375 0.484375 C 10.4375 0.484375 8.546875 -0.00390625 6.921875 -0.984375 C 5.304688 -1.960938 4.046875 -3.367188 3.140625 -5.203125 C 2.242188 -7.046875 1.796875 -9.257812 1.796875 -11.84375 C 1.796875 -14.382812 2.257812 -16.609375 3.1875 -18.515625 C 4.125 -20.421875 5.40625 -21.90625 7.03125 -22.96875 C 8.65625 -24.039062 10.519531 -24.578125 12.625 -24.578125 Z M 12.625 -24.578125 "/></g></g></g></g><g clip-path="url(#d00425b4da)"><g fill="#143047" fill-opacity="1"><g transform="translate(26.553627, 24.480662)"><g><path d="M 12.625 -24.578125 C 14.78125 -24.578125 16.671875 -24.085938 18.296875 -23.109375 C 19.921875 -22.140625 21.179688 -20.738281 22.078125 -18.90625 C 22.972656 -17.082031 23.421875 -14.863281 23.421875 -12.25 C 23.421875 -9.707031 22.960938 -7.484375 22.046875 -5.578125 C 21.128906 -3.671875 19.851562 -2.179688 18.21875 -1.109375 C 16.582031 -0.046875 14.707031 0.484375 12.59375 0.484375 C 10.4375 0.484375 8.546875 -0.00390625 6.921875 -0.984375 C 5.304688 -1.960938 4.046875 -3.367188 3.140625 -5.203125 C 2.242188 -7.046875 1.796875 -9.257812 1.796875 -11.84375 C 1.796875 -14.382812 2.257812 -16.609375 3.1875 -18.515625 C 4.125 -20.421875 5.40625 -21.90625 7.03125 -22.96875 C 8.65625 -24.039062 10.519531 -24.578125 12.625 -24.578125 Z M 12.5 -23.96875 C 11.019531 -23.96875 9.734375 -23.457031 8.640625 -22.4375 C 7.554688 -21.414062 6.710938 -20.007812 6.109375 -18.21875 C 5.503906 -16.425781 5.203125 -14.347656 5.203125 -11.984375 C 5.203125 -9.578125 5.535156 -7.484375 6.203125 -5.703125 C 6.878906 -3.921875 7.789062 -2.546875 8.9375 -1.578125 C 10.082031 -0.617188 11.347656 -0.140625 12.734375 -0.140625 C 14.210938 -0.140625 15.492188 -0.648438 16.578125 -1.671875 C 17.671875 -2.691406 18.515625 -4.101562 19.109375 -5.90625 C 19.710938 -7.707031 20.015625 -9.78125 20.015625 -12.125 C 20.015625 -14.550781 19.679688 -16.648438 19.015625 -18.421875 C 18.347656 -20.191406 17.445312 -21.554688 16.3125 -22.515625 C 15.175781 -23.484375 13.90625 -23.96875 12.5 -23.96875 Z M 12.5 -23.96875 "/></g></g></g></g><g fill="#143047" fill-opacity="1"><g transform="translate(54.092543, 24.480662)"><g><path d="M 1.4375 -24.109375 C 1.90625 -24.085938 2.523438 -24.0625 3.296875 -24.03125 C 4.066406 -24.007812 4.828125 -24 5.578125 -24 C 6.648438 -24 7.671875 -24.007812 8.640625 -24.03125 C 9.617188 -24.0625 10.3125 -24.078125 10.71875 -24.078125 C 13.46875 -24.078125 15.523438 -23.453125 16.890625 -22.203125 C 18.253906 -20.953125 18.9375 -19.335938 18.9375 -17.359375 C 18.9375 -16.546875 18.796875 -15.691406 18.515625 -14.796875 C 18.242188 -13.898438 17.773438 -13.070312 17.109375 -12.3125 C 16.441406 -11.550781 15.523438 -10.929688 14.359375 -10.453125 C 13.203125 -9.972656 11.738281 -9.734375 9.96875 -9.734375 L 6.703125 -9.734375 L 6.703125 -10.421875 L 9.640625 -10.421875 C 11.242188 -10.421875 12.472656 -10.722656 13.328125 -11.328125 C 14.179688 -11.941406 14.757812 -12.75 15.0625 -13.75 C 15.375 -14.75 15.53125 -15.828125 15.53125 -16.984375 C 15.53125 -19.140625 15.101562 -20.75 14.25 -21.8125 C 13.394531 -22.882812 11.9375 -23.421875 9.875 -23.421875 C 8.832031 -23.421875 8.148438 -23.226562 7.828125 -22.84375 C 7.515625 -22.457031 7.359375 -21.675781 7.359375 -20.5 L 7.359375 -3.609375 C 7.359375 -2.796875 7.441406 -2.179688 7.609375 -1.765625 C 7.773438 -1.359375 8.109375 -1.085938 8.609375 -0.953125 C 9.109375 -0.816406 9.835938 -0.726562 10.796875 -0.6875 L 10.796875 0 C 10.203125 -0.0390625 9.453125 -0.0664062 8.546875 -0.078125 C 7.640625 -0.0976562 6.71875 -0.109375 5.78125 -0.109375 C 4.894531 -0.109375 4.066406 -0.0976562 3.296875 -0.078125 C 2.523438 -0.0664062 1.90625 -0.0390625 1.4375 0 L 1.4375 -0.6875 C 2.207031 -0.726562 2.789062 -0.816406 3.1875 -0.953125 C 3.582031 -1.085938 3.847656 -1.359375 3.984375 -1.765625 C 4.117188 -2.179688 4.1875 -2.796875 4.1875 -3.609375 L 4.1875 -20.5 C 4.1875 -21.332031 4.117188 -21.945312 3.984375 -22.34375 C 3.847656 -22.75 3.582031 -23.023438 3.1875 -23.171875 C 2.789062 -23.316406 2.207031 -23.398438 1.4375 -23.421875 Z M 1.4375 -24.109375 "/></g></g></g></g></g><g transform="matrix(1, 0, 0, 1, 38, 29)"><g clip-path="url(#8088e8c7f3)"><g fill="#143047" fill-opacity="1"><g transform="translate(0.973516, 6.156251)"><g><path d="M 3.28125 -1.21875 C 3.238281 -0.8125 3.085938 -0.5 2.828125 -0.28125 C 2.578125 -0.0625 2.242188 0.046875 1.828125 0.046875 C 1.367188 0.046875 1 -0.113281 0.71875 -0.4375 C 0.445312 -0.757812 0.3125 -1.195312 0.3125 -1.75 L 0.3125 -2.125 C 0.3125 -2.476562 0.375 -2.789062 0.5 -3.0625 C 0.632812 -3.332031 0.816406 -3.539062 1.046875 -3.6875 C 1.285156 -3.832031 1.554688 -3.90625 1.859375 -3.90625 C 2.273438 -3.90625 2.601562 -3.789062 2.84375 -3.5625 C 3.09375 -3.332031 3.238281 -3.015625 3.28125 -2.609375 L 2.765625 -2.609375 C 2.722656 -2.921875 2.628906 -3.144531 2.484375 -3.28125 C 2.335938 -3.414062 2.128906 -3.484375 1.859375 -3.484375 C 1.535156 -3.484375 1.28125 -3.363281 1.09375 -3.125 C 0.914062 -2.882812 0.828125 -2.546875 0.828125 -2.109375 L 0.828125 -1.734375 C 0.828125 -1.316406 0.910156 -0.984375 1.078125 -0.734375 C 1.253906 -0.484375 1.503906 -0.359375 1.828125 -0.359375 C 2.109375 -0.359375 2.320312 -0.421875 2.46875 -0.546875 C 2.625 -0.679688 2.722656 -0.90625 2.765625 -1.21875 Z M 3.28125 -1.21875 "/></g></g></g><g fill="#143047" fill-opacity="1"><g transform="translate(4.503737, 6.156251)"><g><path d="M 3.40625 -1.796875 C 3.40625 -1.421875 3.34375 -1.09375 3.21875 -0.8125 C 3.09375 -0.53125 2.910156 -0.316406 2.671875 -0.171875 C 2.441406 -0.0234375 2.171875 0.046875 1.859375 0.046875 C 1.554688 0.046875 1.285156 -0.0234375 1.046875 -0.171875 C 0.816406 -0.316406 0.632812 -0.523438 0.5 -0.796875 C 0.375 -1.078125 0.3125 -1.398438 0.3125 -1.765625 L 0.3125 -2.046875 C 0.3125 -2.421875 0.375 -2.75 0.5 -3.03125 C 0.632812 -3.3125 0.816406 -3.523438 1.046875 -3.671875 C 1.285156 -3.828125 1.554688 -3.90625 1.859375 -3.90625 C 2.171875 -3.90625 2.441406 -3.828125 2.671875 -3.671875 C 2.910156 -3.523438 3.09375 -3.3125 3.21875 -3.03125 C 3.34375 -2.75 3.40625 -2.421875 3.40625 -2.046875 Z M 2.90625 -2.046875 C 2.90625 -2.503906 2.8125 -2.851562 2.625 -3.09375 C 2.445312 -3.34375 2.191406 -3.46875 1.859375 -3.46875 C 1.535156 -3.46875 1.28125 -3.34375 1.09375 -3.09375 C 0.914062 -2.851562 0.820312 -2.519531 0.8125 -2.09375 L 0.8125 -1.796875 C 0.8125 -1.359375 0.90625 -1.007812 1.09375 -0.75 C 1.28125 -0.5 1.535156 -0.375 1.859375 -0.375 C 2.191406 -0.375 2.445312 -0.492188 2.625 -0.734375 C 2.8125 -0.972656 2.90625 -1.316406 2.90625 -1.765625 Z M 2.90625 -2.046875 "/></g></g></g><g fill="#143047" fill-opacity="1"><g transform="translate(8.232584, 6.156251)"><g><path d="M 1.390625 -1.4375 L 0.09375 -1.4375 L 0.09375 -1.84375 L 1.390625 -1.84375 Z M 1.390625 -1.4375 "/></g></g></g><g fill="#143047" fill-opacity="1"><g transform="translate(9.728889, 6.156251)"><g><path d="M 3.40625 -1.796875 C 3.40625 -1.421875 3.34375 -1.09375 3.21875 -0.8125 C 3.09375 -0.53125 2.910156 -0.316406 2.671875 -0.171875 C 2.441406 -0.0234375 2.171875 0.046875 1.859375 0.046875 C 1.554688 0.046875 1.285156 -0.0234375 1.046875 -0.171875 C 0.816406 -0.316406 0.632812 -0.523438 0.5 -0.796875 C 0.375 -1.078125 0.3125 -1.398438 0.3125 -1.765625 L 0.3125 -2.046875 C 0.3125 -2.421875 0.375 -2.75 0.5 -3.03125 C 0.632812 -3.3125 0.816406 -3.523438 1.046875 -3.671875 C 1.285156 -3.828125 1.554688 -3.90625 1.859375 -3.90625 C 2.171875 -3.90625 2.441406 -3.828125 2.671875 -3.671875 C 2.910156 -3.523438 3.09375 -3.3125 3.21875 -3.03125 C 3.34375 -2.75 3.40625 -2.421875 3.40625 -2.046875 Z M 2.90625 -2.046875 C 2.90625 -2.503906 2.8125 -2.851562 2.625 -3.09375 C 2.445312 -3.34375 2.191406 -3.46875 1.859375 -3.46875 C 1.535156 -3.46875 1.28125 -3.34375 1.09375 -3.09375 C 0.914062 -2.851562 0.820312 -2.519531 0.8125 -2.09375 L 0.8125 -1.796875 C 0.8125 -1.359375 0.90625 -1.007812 1.09375 -0.75 C 1.28125 -0.5 1.535156 -0.375 1.859375 -0.375 C 2.191406 -0.375 2.445312 -0.492188 2.625 -0.734375 C 2.8125 -0.972656 2.90625 -1.316406 2.90625 -1.765625 Z M 2.90625 -2.046875 "/></g></g></g><g fill="#143047" fill-opacity="1"><g transform="translate(13.457736, 6.156251)"><g><path d="M 1.28125 -1.21875 L 1.359375 -0.703125 L 1.46875 -1.171875 L 2.21875 -3.859375 L 2.65625 -3.859375 L 3.390625 -1.171875 L 3.5 -0.703125 L 3.578125 -1.21875 L 4.1875 -3.859375 L 4.6875 -3.859375 L 3.765625 0 L 3.296875 0 L 2.5 -2.8125 L 2.4375 -3.109375 L 2.375 -2.8125 L 1.5625 0 L 1.09375 0 L 0.15625 -3.859375 L 0.671875 -3.859375 Z M 1.28125 -1.21875 "/></g></g></g><g fill="#143047" fill-opacity="1"><g transform="translate(18.269748, 6.156251)"><g><path d="M 3.40625 0 L 2.90625 0 L 0.953125 -2.96875 L 0.953125 0 L 0.453125 0 L 0.453125 -3.859375 L 0.953125 -3.859375 L 2.90625 -0.875 L 2.90625 -3.859375 L 3.40625 -3.859375 Z M 3.40625 0 "/></g></g></g><g fill="#143047" fill-opacity="1"><g transform="translate(22.136308, 6.156251)"><g><path d="M 2.625 -1.78125 L 0.953125 -1.78125 L 0.953125 -0.421875 L 2.890625 -0.421875 L 2.890625 0 L 0.453125 0 L 0.453125 -3.859375 L 2.875 -3.859375 L 2.875 -3.4375 L 0.953125 -3.4375 L 0.953125 -2.203125 L 2.625 -2.203125 Z M 2.625 -1.78125 "/></g></g></g><g fill="#143047" fill-opacity="1"><g transform="translate(25.218962, 6.156251)"><g><path d="M 1.859375 -1.5625 L 0.953125 -1.5625 L 0.953125 0 L 0.4375 0 L 0.4375 -3.859375 L 1.71875 -3.859375 C 2.15625 -3.859375 2.488281 -3.757812 2.71875 -3.5625 C 2.957031 -3.363281 3.078125 -3.070312 3.078125 -2.6875 C 3.078125 -2.445312 3.007812 -2.238281 2.875 -2.0625 C 2.75 -1.882812 2.570312 -1.753906 2.34375 -1.671875 L 3.25 -0.03125 L 3.25 0 L 2.703125 0 Z M 0.953125 -1.96875 L 1.734375 -1.96875 C 1.984375 -1.96875 2.179688 -2.03125 2.328125 -2.15625 C 2.484375 -2.289062 2.5625 -2.46875 2.5625 -2.6875 C 2.5625 -2.925781 2.488281 -3.109375 2.34375 -3.234375 C 2.207031 -3.367188 2.003906 -3.4375 1.734375 -3.4375 L 0.953125 -3.4375 Z M 0.953125 -1.96875 "/></g></g></g><g fill="#143047" fill-opacity="1"><g transform="translate(28.558504, 6.156251)"><g><path d="M 1.578125 -1.71875 C 1.140625 -1.84375 0.820312 -1.992188 0.625 -2.171875 C 0.425781 -2.359375 0.328125 -2.585938 0.328125 -2.859375 C 0.328125 -3.160156 0.445312 -3.410156 0.6875 -3.609375 C 0.9375 -3.804688 1.253906 -3.90625 1.640625 -3.90625 C 1.910156 -3.90625 2.144531 -3.851562 2.34375 -3.75 C 2.550781 -3.644531 2.710938 -3.503906 2.828125 -3.328125 C 2.941406 -3.148438 3 -2.953125 3 -2.734375 L 2.5 -2.734375 C 2.5 -2.972656 2.421875 -3.15625 2.265625 -3.28125 C 2.117188 -3.414062 1.910156 -3.484375 1.640625 -3.484375 C 1.390625 -3.484375 1.191406 -3.425781 1.046875 -3.3125 C 0.910156 -3.207031 0.84375 -3.054688 0.84375 -2.859375 C 0.84375 -2.703125 0.910156 -2.566406 1.046875 -2.453125 C 1.179688 -2.347656 1.40625 -2.25 1.71875 -2.15625 C 2.039062 -2.070312 2.289062 -1.972656 2.46875 -1.859375 C 2.65625 -1.753906 2.789062 -1.628906 2.875 -1.484375 C 2.96875 -1.335938 3.015625 -1.171875 3.015625 -0.984375 C 3.015625 -0.671875 2.890625 -0.421875 2.640625 -0.234375 C 2.398438 -0.046875 2.078125 0.046875 1.671875 0.046875 C 1.398438 0.046875 1.148438 0 0.921875 -0.09375 C 0.691406 -0.195312 0.515625 -0.335938 0.390625 -0.515625 C 0.273438 -0.691406 0.21875 -0.894531 0.21875 -1.125 L 0.71875 -1.125 C 0.71875 -0.882812 0.800781 -0.695312 0.96875 -0.5625 C 1.144531 -0.425781 1.378906 -0.359375 1.671875 -0.359375 C 1.941406 -0.359375 2.144531 -0.410156 2.28125 -0.515625 C 2.425781 -0.628906 2.5 -0.78125 2.5 -0.96875 C 2.5 -1.15625 2.429688 -1.300781 2.296875 -1.40625 C 2.171875 -1.507812 1.929688 -1.613281 1.578125 -1.71875 Z M 1.578125 -1.71875 "/></g></g></g><g fill="#143047" fill-opacity="1"><g transform="translate(31.776223, 6.156251)"><g><path d="M 3.40625 0 L 2.90625 0 L 2.90625 -1.78125 L 0.953125 -1.78125 L 0.953125 0 L 0.453125 0 L 0.453125 -3.859375 L 0.953125 -3.859375 L 0.953125 -2.203125 L 2.90625 -2.203125 L 2.90625 -3.859375 L 3.40625 -3.859375 Z M 3.40625 0 "/></g></g></g><g fill="#143047" fill-opacity="1"><g transform="translate(35.642782, 6.156251)"><g><path d="M 1 0 L 0.484375 0 L 0.484375 -3.859375 L 1 -3.859375 Z M 1 0 "/></g></g></g><g fill="#143047" fill-opacity="1"><g transform="translate(37.117901, 6.156251)"><g><path d="M 0.953125 -1.515625 L 0.953125 0 L 0.453125 0 L 0.453125 -3.859375 L 1.875 -3.859375 C 2.289062 -3.859375 2.617188 -3.75 2.859375 -3.53125 C 3.097656 -3.3125 3.21875 -3.023438 3.21875 -2.671875 C 3.21875 -2.296875 3.097656 -2.007812 2.859375 -1.8125 C 2.628906 -1.613281 2.296875 -1.515625 1.859375 -1.515625 Z M 0.953125 -1.921875 L 1.875 -1.921875 C 2.144531 -1.921875 2.351562 -1.984375 2.5 -2.109375 C 2.644531 -2.242188 2.71875 -2.429688 2.71875 -2.671875 C 2.71875 -2.898438 2.644531 -3.082031 2.5 -3.21875 C 2.351562 -3.351562 2.148438 -3.425781 1.890625 -3.4375 L 0.953125 -3.4375 Z M 0.953125 -1.921875 "/></g></g></g><g fill="#143047" fill-opacity="1"><g transform="translate(40.539541, 6.156251)"><g/></g></g><g fill="#143047" fill-opacity="1"><g transform="translate(41.882244, 6.156251)"><g><path d="M 0.953125 -1.515625 L 0.953125 0 L 0.453125 0 L 0.453125 -3.859375 L 1.875 -3.859375 C 2.289062 -3.859375 2.617188 -3.75 2.859375 -3.53125 C 3.097656 -3.3125 3.21875 -3.023438 3.21875 -2.671875 C 3.21875 -2.296875 3.097656 -2.007812 2.859375 -1.8125 C 2.628906 -1.613281 2.296875 -1.515625 1.859375 -1.515625 Z M 0.953125 -1.921875 L 1.875 -1.921875 C 2.144531 -1.921875 2.351562 -1.984375 2.5 -2.109375 C 2.644531 -2.242188 2.71875 -2.429688 2.71875 -2.671875 C 2.71875 -2.898438 2.644531 -3.082031 2.5 -3.21875 C 2.351562 -3.351562 2.148438 -3.425781 1.890625 -3.4375 L 0.953125 -3.4375 Z M 0.953125 -1.921875 "/></g></g></g><g fill="#143047" fill-opacity="1"><g transform="translate(45.303884, 6.156251)"><g><path d="M 1.859375 -1.5625 L 0.953125 -1.5625 L 0.953125 0 L 0.4375 0 L 0.4375 -3.859375 L 1.71875 -3.859375 C 2.15625 -3.859375 2.488281 -3.757812 2.71875 -3.5625 C 2.957031 -3.363281 3.078125 -3.070312 3.078125 -2.6875 C 3.078125 -2.445312 3.007812 -2.238281 2.875 -2.0625 C 2.75 -1.882812 2.570312 -1.753906 2.34375 -1.671875 L 3.25 -0.03125 L 3.25 0 L 2.703125 0 Z M 0.953125 -1.96875 L 1.734375 -1.96875 C 1.984375 -1.96875 2.179688 -2.03125 2.328125 -2.15625 C 2.484375 -2.289062 2.5625 -2.46875 2.5625 -2.6875 C 2.5625 -2.925781 2.488281 -3.109375 2.34375 -3.234375 C 2.207031 -3.367188 2.003906 -3.4375 1.734375 -3.4375 L 0.953125 -3.4375 Z M 0.953125 -1.96875 "/></g></g></g><g fill="#143047" fill-opacity="1"><g transform="translate(48.643426, 6.156251)"><g><path d="M 3.40625 -1.796875 C 3.40625 -1.421875 3.34375 -1.09375 3.21875 -0.8125 C 3.09375 -0.53125 2.910156 -0.316406 2.671875 -0.171875 C 2.441406 -0.0234375 2.171875 0.046875 1.859375 0.046875 C 1.554688 0.046875 1.285156 -0.0234375 1.046875 -0.171875 C 0.816406 -0.316406 0.632812 -0.523438 0.5 -0.796875 C 0.375 -1.078125 0.3125 -1.398438 0.3125 -1.765625 L 0.3125 -2.046875 C 0.3125 -2.421875 0.375 -2.75 0.5 -3.03125 C 0.632812 -3.3125 0.816406 -3.523438 1.046875 -3.671875 C 1.285156 -3.828125 1.554688 -3.90625 1.859375 -3.90625 C 2.171875 -3.90625 2.441406 -3.828125 2.671875 -3.671875 C 2.910156 -3.523438 3.09375 -3.3125 3.21875 -3.03125 C 3.34375 -2.75 3.40625 -2.421875 3.40625 -2.046875 Z M 2.90625 -2.046875 C 2.90625 -2.503906 2.8125 -2.851562 2.625 -3.09375 C 2.445312 -3.34375 2.191406 -3.46875 1.859375 -3.46875 C 1.535156 -3.46875 1.28125 -3.34375 1.09375 -3.09375 C 0.914062 -2.851562 0.820312 -2.519531 0.8125 -2.09375 L 0.8125 -1.796875 C 0.8125 -1.359375 0.90625 -1.007812 1.09375 -0.75 C 1.28125 -0.5 1.535156 -0.375 1.859375 -0.375 C 2.191406 -0.375 2.445312 -0.492188 2.625 -0.734375 C 2.8125 -0.972656 2.90625 -1.316406 2.90625 -1.765625 Z M 2.90625 -2.046875 "/></g></g></g><g fill="#143047" fill-opacity="1"><g transform="translate(52.372273, 6.156251)"><g><path d="M 0.953125 -1.515625 L 0.953125 0 L 0.453125 0 L 0.453125 -3.859375 L 1.875 -3.859375 C 2.289062 -3.859375 2.617188 -3.75 2.859375 -3.53125 C 3.097656 -3.3125 3.21875 -3.023438 3.21875 -2.671875 C 3.21875 -2.296875 3.097656 -2.007812 2.859375 -1.8125 C 2.628906 -1.613281 2.296875 -1.515625 1.859375 -1.515625 Z M 0.953125 -1.921875 L 1.875 -1.921875 C 2.144531 -1.921875 2.351562 -1.984375 2.5 -2.109375 C 2.644531 -2.242188 2.71875 -2.429688 2.71875 -2.671875 C 2.71875 -2.898438 2.644531 -3.082031 2.5 -3.21875 C 2.351562 -3.351562 2.148438 -3.425781 1.890625 -3.4375 L 0.953125 -3.4375 Z M 0.953125 -1.921875 "/></g></g></g><g fill="#143047" fill-opacity="1"><g transform="translate(55.793913, 6.156251)"><g><path d="M 2.625 -1.78125 L 0.953125 -1.78125 L 0.953125 -0.421875 L 2.890625 -0.421875 L 2.890625 0 L 0.453125 0 L 0.453125 -3.859375 L 2.875 -3.859375 L 2.875 -3.4375 L 0.953125 -3.4375 L 0.953125 -2.203125 L 2.625 -2.203125 Z M 2.625 -1.78125 "/></g></g></g><g fill="#143047" fill-opacity="1"><g transform="translate(58.876567, 6.156251)"><g><path d="M 1.859375 -1.5625 L 0.953125 -1.5625 L 0.953125 0 L 0.4375 0 L 0.4375 -3.859375 L 1.71875 -3.859375 C 2.15625 -3.859375 2.488281 -3.757812 2.71875 -3.5625 C 2.957031 -3.363281 3.078125 -3.070312 3.078125 -2.6875 C 3.078125 -2.445312 3.007812 -2.238281 2.875 -2.0625 C 2.75 -1.882812 2.570312 -1.753906 2.34375 -1.671875 L 3.25 -0.03125 L 3.25 0 L 2.703125 0 Z M 0.953125 -1.96875 L 1.734375 -1.96875 C 1.984375 -1.96875 2.179688 -2.03125 2.328125 -2.15625 C 2.484375 -2.289062 2.5625 -2.46875 2.5625 -2.6875 C 2.5625 -2.925781 2.488281 -3.109375 2.34375 -3.234375 C 2.207031 -3.367188 2.003906 -3.4375 1.734375 -3.4375 L 0.953125 -3.4375 Z M 0.953125 -1.96875 "/></g></g></g><g fill="#143047" fill-opacity="1"><g transform="translate(62.004186, 6.156251)"><g><path d="M 3.109375 -3.4375 L 1.875 -3.4375 L 1.875 0 L 1.359375 0 L 1.359375 -3.4375 L 0.125 -3.4375 L 0.125 -3.859375 L 3.109375 -3.859375 Z M 3.109375 -3.4375 "/></g></g></g><g fill="#143047" fill-opacity="1"><g transform="translate(65.240444, 6.156251)"><g><path d="M 1 0 L 0.484375 0 L 0.484375 -3.859375 L 1 -3.859375 Z M 1 0 "/></g></g></g><g fill="#143047" fill-opacity="1"><g transform="translate(66.715563, 6.156251)"><g><path d="M 2.625 -1.78125 L 0.953125 -1.78125 L 0.953125 -0.421875 L 2.890625 -0.421875 L 2.890625 0 L 0.453125 0 L 0.453125 -3.859375 L 2.875 -3.859375 L 2.875 -3.4375 L 0.953125 -3.4375 L 0.953125 -2.203125 L 2.625 -2.203125 Z M 2.625 -1.78125 "/></g></g></g><g fill="#143047" fill-opacity="1"><g transform="translate(69.798217, 6.156251)"><g><path d="M 1.578125 -1.71875 C 1.140625 -1.84375 0.820312 -1.992188 0.625 -2.171875 C 0.425781 -2.359375 0.328125 -2.585938 0.328125 -2.859375 C 0.328125 -3.160156 0.445312 -3.410156 0.6875 -3.609375 C 0.9375 -3.804688 1.253906 -3.90625 1.640625 -3.90625 C 1.910156 -3.90625 2.144531 -3.851562 2.34375 -3.75 C 2.550781 -3.644531 2.710938 -3.503906 2.828125 -3.328125 C 2.941406 -3.148438 3 -2.953125 3 -2.734375 L 2.5 -2.734375 C 2.5 -2.972656 2.421875 -3.15625 2.265625 -3.28125 C 2.117188 -3.414062 1.910156 -3.484375 1.640625 -3.484375 C 1.390625 -3.484375 1.191406 -3.425781 1.046875 -3.3125 C 0.910156 -3.207031 0.84375 -3.054688 0.84375 -2.859375 C 0.84375 -2.703125 0.910156 -2.566406 1.046875 -2.453125 C 1.179688 -2.347656 1.40625 -2.25 1.71875 -2.15625 C 2.039062 -2.070312 2.289062 -1.972656 2.46875 -1.859375 C 2.65625 -1.753906 2.789062 -1.628906 2.875 -1.484375 C 2.96875 -1.335938 3.015625 -1.171875 3.015625 -0.984375 C 3.015625 -0.671875 2.890625 -0.421875 2.640625 -0.234375 C 2.398438 -0.046875 2.078125 0.046875 1.671875 0.046875 C 1.398438 0.046875 1.148438 0 0.921875 -0.09375 C 0.691406 -0.195312 0.515625 -0.335938 0.390625 -0.515625 C 0.273438 -0.691406 0.21875 -0.894531 0.21875 -1.125 L 0.71875 -1.125 C 0.71875 -0.882812 0.800781 -0.695312 0.96875 -0.5625 C 1.144531 -0.425781 1.378906 -0.359375 1.671875 -0.359375 C 1.941406 -0.359375 2.144531 -0.410156 2.28125 -0.515625 C 2.425781 -0.628906 2.5 -0.78125 2.5 -0.96875 C 2.5 -1.15625 2.429688 -1.300781 2.296875 -1.40625 C 2.171875 -1.507812 1.929688 -1.613281 1.578125 -1.71875 Z M 1.578125 -1.71875 "/></g></g></g></g></g></svg>